<svg width="113" height="16" viewBox="0 0 113 16" fill="none" xmlns="http://www.w3.org/2000/svg">
    <path opacity="0.3" d="M1.664 14.28C2.432 14.448 3.584 15.408 5.408 15.408C7.88 15.408 9.992 13.704 9.992 11.088C9.992 9.768 9.32 8.376 7.472 7.44L5.192 6.264C3.104 5.184 2.264 4.536 2.264 3.288C2.264 2.088 3.248 1.152 4.592 1.152C7.376 1.152 8.096 3.432 8.264 5.352H8.768V0.0719991H8.288C8.168 0.576 7.88 0.935999 7.592 1.176C6.872 0.647999 6.08 0.191999 4.664 0.191999C2.336 0.191999 0.68 1.776 0.68 3.768C0.68 5.592 1.952 7.008 3.344 7.728L5.648 8.904C7.304 9.768 8.408 10.704 8.408 11.808C8.408 13.344 7.112 14.448 5.408 14.448C1.016 14.448 0.992 10.128 0.992 10.128H0.488V15.408H0.968C1.088 14.88 1.376 14.52 1.664 14.28ZM23.2361 15V14.496C21.6281 14.496 21.3161 14.088 21.3161 11.688V10.176C21.3161 8.136 20.5721 6.6 18.3641 6.6C16.9721 6.6 15.8921 7.512 15.2201 8.328V0.191999L11.6201 0.792V1.296C13.2281 1.296 13.5161 1.704 13.5161 4.104V11.688C13.5161 14.088 13.2281 14.496 11.6201 14.496V15H16.7321V14.496C15.4121 14.496 15.2201 14.184 15.2201 11.688V10.128C15.2201 8.76 16.6121 7.728 17.8121 7.728C19.0601 7.728 19.6361 8.736 19.6361 10.296V11.688C19.6361 14.16 19.4441 14.496 17.9321 14.496V15H23.2361ZM32.9911 14.52L32.6551 14.064C32.4871 14.232 32.2231 14.424 31.9831 14.424C31.6231 14.424 31.4311 14.088 31.4311 13.488V9.864C31.4311 7.584 30.4711 6.6 28.1431 6.6C26.6071 6.6 25.0951 7.368 25.0951 8.52C25.0951 9 25.4551 9.36 25.9351 9.36C26.3911 9.36 26.7511 9 26.7511 8.52C26.7511 7.752 27.5671 7.368 28.1191 7.368C29.4871 7.368 29.7271 8.088 29.7271 9.888C26.9911 10.368 24.6151 11.256 24.6151 13.296C24.6151 14.568 25.5991 15.312 26.7751 15.312C27.7351 15.312 28.5991 14.928 29.7751 13.872C29.8951 14.736 30.4711 15.264 31.4071 15.264C31.9351 15.264 32.5351 15 32.9911 14.52ZM29.7271 13.08C28.6231 14.064 28.0471 14.232 27.5431 14.232C26.9431 14.232 26.4151 13.776 26.4151 13.008C26.4151 11.952 27.4471 11.16 29.7271 10.632V13.08ZM38.9748 10.032L41.0148 8.352C41.9508 7.608 43.5348 7.488 43.5348 7.488V7.008H38.7348V7.488C39.9108 7.488 40.2468 8.112 39.4548 8.76L37.4388 10.392V0.191999L33.8388 0.792V1.296C35.4468 1.296 35.7348 1.704 35.7348 4.104V11.688C35.7348 14.088 35.4468 14.496 33.8388 14.496V15H39.3348V14.496C37.7508 14.496 37.4388 14.088 37.4388 11.688V11.256L37.6548 11.088L41.5908 15H44.2548V14.496C43.9428 14.496 43.2468 14.328 42.8388 13.92L38.9748 10.032ZM47.1691 9.504C47.5051 8.328 48.3931 7.56 49.4251 7.56C51.0091 7.56 51.4171 8.736 51.1531 9.504H47.1691ZM47.0251 10.392H52.8091C53.3851 8.328 51.6811 6.6 49.5451 6.6C47.3131 6.6 45.1051 8.448 45.1051 10.992C45.1051 13.416 46.9051 15.408 49.5451 15.408C50.9131 15.408 52.3771 14.712 53.2171 13.824L52.7851 13.296C52.0891 13.944 50.9371 14.4 50.1451 14.4C47.6731 14.4 46.7371 12.648 47.0251 10.392ZM61.1581 12.792C61.1581 11.928 60.5581 11.088 59.5021 10.488L58.3501 9.864C57.2701 9.288 56.8861 8.976 56.8861 8.4C56.8861 7.8 57.2941 7.368 58.1101 7.368C59.3341 7.368 60.0541 8.376 60.0541 9.384H60.5581V6.6H60.0541C60.0541 7.848 59.6701 6.6 57.8701 6.6C56.6461 6.6 55.4461 7.488 55.4461 8.784C55.4461 9.552 55.8781 10.56 57.0301 11.184L58.3741 11.904C59.1901 12.336 59.7181 12.768 59.7181 13.368C59.7181 14.04 59.1421 14.592 58.3501 14.592C56.6461 14.592 55.7341 12.984 55.7341 11.904H55.2301V15.408H55.7341C55.7341 13.704 56.6461 15.408 58.3021 15.408C59.8621 15.408 61.1581 14.376 61.1581 12.792ZM65.4504 9.504C65.7864 8.328 66.6744 7.56 67.7064 7.56C69.2904 7.56 69.6984 8.736 69.4344 9.504H65.4504ZM65.3064 10.392H71.0904C71.6664 8.328 69.9624 6.6 67.8264 6.6C65.5944 6.6 63.3864 8.448 63.3864 10.992C63.3864 13.416 65.1864 15.408 67.8264 15.408C69.1944 15.408 70.6584 14.712 71.4984 13.824L71.0664 13.296C70.3704 13.944 69.2184 14.4 68.4264 14.4C65.9544 14.4 65.0184 12.648 65.3064 10.392ZM81.6474 14.52L81.3114 14.064C81.1434 14.232 80.8794 14.424 80.6394 14.424C80.2794 14.424 80.0874 14.088 80.0874 13.488V9.864C80.0874 7.584 79.1274 6.6 76.7994 6.6C75.2634 6.6 73.7514 7.368 73.7514 8.52C73.7514 9 74.1114 9.36 74.5914 9.36C75.0474 9.36 75.4074 9 75.4074 8.52C75.4074 7.752 76.2234 7.368 76.7754 7.368C78.1434 7.368 78.3834 8.088 78.3834 9.888C75.6474 10.368 73.2714 11.256 73.2714 13.296C73.2714 14.568 74.2554 15.312 75.4314 15.312C76.3914 15.312 77.2554 14.928 78.4314 13.872C78.5514 14.736 79.1274 15.264 80.0634 15.264C80.5914 15.264 81.1914 15 81.6474 14.52ZM78.3834 13.08C77.2794 14.064 76.7034 14.232 76.1994 14.232C75.5994 14.232 75.0714 13.776 75.0714 13.008C75.0714 11.952 76.1034 11.16 78.3834 10.632V13.08ZM90.9671 8.088C90.9671 7.488 90.3911 6.6 89.0711 6.6C88.1111 6.6 87.0311 7.368 86.5511 8.328C86.4791 7.824 86.2631 6.84 86.1431 6.6L82.9511 7.2V7.704C84.5351 7.704 84.8471 8.088 84.8471 10.488V11.688C84.8471 14.088 84.5351 14.496 82.9511 14.496V15H88.4471V14.496C86.8391 14.496 86.5511 14.088 86.5511 11.688V10.368C86.5511 8.448 87.8471 7.56 88.3991 7.56C88.8791 7.56 89.1671 7.848 89.1671 8.352C89.1671 8.808 89.5511 9.216 90.0071 9.216C90.7511 9.216 90.9671 8.616 90.9671 8.088ZM96.6266 7.368C97.0586 7.368 97.4906 7.608 97.4906 8.4C97.4906 8.928 97.8986 9.36 98.4266 9.36C99.2426 9.36 99.4826 8.712 99.4826 8.328C99.4826 7.44 98.6186 6.6 96.6266 6.6C94.7066 6.6 92.3786 8.376 92.3786 11.208C92.3786 13.608 93.9626 15.408 96.6266 15.408C97.9946 15.408 99.2906 14.808 100.203 13.824L99.7946 13.296C99.0026 14.04 98.0186 14.4 97.2266 14.4C95.2586 14.4 94.3226 13.128 94.3226 11.208C94.3226 9 95.3546 7.368 96.6266 7.368ZM112.72 15V14.496C111.112 14.496 110.8 14.088 110.8 11.688V10.176C110.8 8.136 110.056 6.6 107.848 6.6C106.456 6.6 105.376 7.512 104.704 8.328V0.191999L101.104 0.792V1.296C102.712 1.296 103 1.704 103 4.104V11.688C103 14.088 102.712 14.496 101.104 14.496V15H106.216V14.496C104.896 14.496 104.704 14.184 104.704 11.688V10.128C104.704 8.76 106.096 7.728 107.296 7.728C108.544 7.728 109.12 8.736 109.12 10.296V11.688C109.12 14.16 108.928 14.496 107.416 14.496V15H112.72Z" fill="black"/>
</svg>
